# xmcd CD database file
#
# Track frame offsets:
#	150
#	22145
#	42177
#	57337
#	75605
#	98842
#	114675
#	137197
#	155270
#	177070
#	197242
#	218335
#	233377
#
# Disc length: 3427 seconds
#
# Revision: 2
# Processed by: cddbd v1.5.2PL0 Copyright (c) Steve Scherf et al.
# Submitted via: CDex 1.51
#
DISCID=a40d610d
DTITLE=玉置浩二 - 酒紅色的心
DYEAR=1900
DGENRE=Jazz
TTITLE0=To me
TTITLE1=酒紅色的心
TTITLE2=Friend
TTITLE3=夏日終結的合唱
TTITLE4=夢的延續
TTITLE5=閉上你的眼睛
TTITLE6=戀愛預感
TTITLE7=送給你的
TTITLE8=向悲哀說再見
TTITLE9=藍眼睛的愛麗絲
TTITLE10=朝陽中有你
TTITLE11=立誓
TTITLE12=回到那時候
EXTD=
EXTT0=
EXTT1=
EXTT2=
EXTT3=
EXTT4=
EXTT5=
EXTT6=
EXTT7=
EXTT8=
EXTT9=
EXTT10=
EXTT11=
EXTT12=
PLAYORDER=
